<?xml version="1.0" encoding="UTF-8" standalone="no"?>
<!-- Created with Inkscape (http://www.inkscape.org/) -->

<svg
   xmlns:dc="http://purl.org/dc/elements/1.1/"
   xmlns:cc="http://creativecommons.org/ns#"
   xmlns:rdf="http://www.w3.org/1999/02/22-rdf-syntax-ns#"
   xmlns:svg="http://www.w3.org/2000/svg"
   xmlns="http://www.w3.org/2000/svg"
   xmlns:sodipodi="http://sodipodi.sourceforge.net/DTD/sodipodi-0.dtd"
   xmlns:inkscape="http://www.inkscape.org/namespaces/inkscape"
   width="280.92993"
   height="268.55331"
   id="svg3795"
   version="1.1"
   inkscape:version="0.48.2 r9819"
   sodipodi:docname="DogProfile.svg">
  <defs
     id="defs3797" />
  <sodipodi:namedview
     id="base"
     pagecolor="#ffffff"
     bordercolor="#666666"
     borderopacity="1.0"
     inkscape:pageopacity="0.0"
     inkscape:pageshadow="2"
     inkscape:zoom="1"
     inkscape:cx="261.17932"
     inkscape:cy="173.41952"
     inkscape:document-units="px"
     inkscape:current-layer="layer1"
     showgrid="false"
     fit-margin-top="0"
     fit-margin-left="0"
     fit-margin-right="0"
     fit-margin-bottom="0"
     inkscape:window-width="1680"
     inkscape:window-height="988"
     inkscape:window-x="-8"
     inkscape:window-y="-8"
     inkscape:window-maximized="0" />
  <metadata
     id="metadata3800">
    <rdf:RDF>
      <cc:Work
         rdf:about="">
        <dc:format>image/svg+xml</dc:format>
        <dc:type
           rdf:resource="http://purl.org/dc/dcmitype/StillImage" />
        <dc:title></dc:title>
      </cc:Work>
    </rdf:RDF>
  </metadata>
  <g
     inkscape:label="Layer 1"
     inkscape:groupmode="layer"
     id="layer1"
     transform="translate(-223.82069,-315.22837)">
    <path
       style="color:#000000;fill:#333333;fill-opacity:1;fill-rule:nonzero;stroke:none;stroke-width:1;marker:none;visibility:visible;display:inline;overflow:visible;enable-background:accumulate"
       d="m 364.1456,363.98711 c -0.91483,0.0697 -2.44702,0.76989 -3.04848,0.42965 -0.7401,-0.41879 0.46145,1.83965 -0.32734,1.39124 -0.3944,-0.22421 -0.6242,2.93243 -0.21484,4.92054 0.40945,1.98806 0.32269,3.85021 -0.60354,3.87705 -0.92628,0.0268 2.14038,3.22288 -1.17641,1.32986 -0.46323,-0.26436 -0.77013,-0.43678 -1.00254,-0.56265 0.17497,0.0486 0.24567,-0.0141 -0.13297,-0.40919 -0.60586,-0.63221 -0.43537,-0.5453 -0.37849,-0.5217 -0.0477,-0.0484 -0.2754,-0.25491 -1.0639,-0.92068 -2.13495,-1.80265 -7.93164,-6.85988 -7.26315,-5.87188 0.66849,0.98799 -3.422,-2.0263 -5.68775,-3.12008 -0.16099,-0.0777 -0.23324,-0.11815 -0.33755,-0.17389 0.0452,0.16102 -0.20624,0.33911 -1.39125,0.36827 -1.64082,0.0404 -0.75713,2.09001 0.0613,3.47812 -0.11713,-0.16093 -0.22142,-0.30313 -0.36826,-0.50124 -3.87236,-5.22491 1.21708,5.3756 1.42191,7.15057 0.20485,1.77498 0.39548,4.64202 0.53194,6.89485 0.13658,2.25285 -2.18199,15.83754 -2.45513,17.33945 -0.27312,1.50185 0.12783,2.32109 -1.44239,3.34511 -1.5702,1.02404 -3.27197,2.72656 -4.70567,4.09189 -1.43372,1.36536 -7.57438,6.14601 -9.96378,8.19406 -2.38941,2.048 -5.39653,4.78543 -6.76189,6.83347 -1.36535,2.04802 -2.31815,3.74577 -2.86433,5.45244 -0.54615,1.70672 -2.52988,7.03326 -2.80292,8.3986 -0.27307,1.36543 -2.86622,4.77857 -4.36812,6.89489 -1.50189,2.11627 -5.94138,5.26035 -7.98942,6.35266 -2.04803,1.09227 -7.16522,4.64245 -9.55462,6.48567 -2.38937,1.84326 -6.27707,4.15976 -6.82322,4.50109 -0.54613,0.34136 -5.94534,3.68896 -7.44727,4.23511 -1.50187,0.54613 -3.89614,2.35035 -4.09189,2.65974 -0.19579,0.30938 0.004,2.96082 0.58311,4.40904 0.57924,1.44818 2.26747,3.81342 2.89501,4.63405 0.62756,0.82064 1.45357,0.91303 1.98456,1.2992 0.53099,0.38614 0.81986,1.81046 2.73136,5.36038 1.91148,3.54993 5.461,4.91616 7.09942,5.87185 1.63846,0.95574 5.046,0.81839 5.72866,0.81839 0.68265,0 0.4119,0.13526 1.0946,1.22756 0.6827,1.09228 4.77604,3.14409 6.00488,3.00759 1.22881,-0.13656 9.97107,-2.45786 12.83832,-3.14055 2.86728,-0.6827 17.89172,-5.51638 22.52591,-5.90255 4.63419,-0.38618 8.49063,1.92569 11.58008,3.85661 3.08949,1.93092 7.72852,7.34491 10.04561,8.88962 2.3171,1.54475 1.75906,-1.4506 5.79003,0.37852 4.03096,1.82909 11.19385,8.88698 14.66948,14.67968 2.06673,3.44456 3.62552,13.58776 7.52909,23.10902 38.3814,-13.79216 65.75684,-50.46105 65.75684,-93.65338 0,-5.05062 -0.38245,-10.00726 -1.10482,-14.8536 -13.25579,-5.88235 -33.99209,-14.91036 -34.12644,-14.96612 -0.1696,-0.0703 -0.41928,-0.19129 -0.74679,-0.35802 -0.32735,-0.16682 -27.90379,-27.85136 -28.36709,-28.10113 -0.46342,-0.24982 -11.98458,-12.39614 -12.56213,-12.71561 -0.57741,-0.31943 -8.51659,-5.94618 -9.18631,-6.32195 -0.12561,-0.0704 -0.30038,-0.0877 -0.51148,-0.0716 z m -21.23696,0.36827 c -0.0709,-0.25322 -0.83375,-0.44543 0,0 z"
       id="path6899"
       inkscape:connector-curvature="0"
       sodipodi:nodetypes="ccsccccccscccccccccsssscccccccccccsssccsssssscsccccccccc" />
  </g>
</svg>
